<svg width="1807" height="1384" viewBox="0 0 1807 1384" fill="none" xmlns="http://www.w3.org/2000/svg">
<g style="mix-blend-mode:lighten">
<path fill-rule="evenodd" clip-rule="evenodd" d="M725.995 59.3899L728.978 60.9995C729.045 61.0359 729.1 61.0893 729.139 61.1541C729.178 61.2189 729.198 61.2928 729.198 61.368C729.198 61.4433 729.178 61.5172 729.139 61.582C729.1 61.6468 729.045 61.7002 728.978 61.7365L725.995 63.3472C725.924 63.386 725.866 63.4438 725.827 63.5138L724.196 66.4575C724.159 66.5237 724.105 66.579 724.039 66.6174C723.974 66.6559 723.899 66.6762 723.822 66.6762C723.746 66.6762 723.671 66.6559 723.605 66.6174C723.54 66.579 723.486 66.5237 723.449 66.4575L721.817 63.5149C721.778 63.4429 721.719 63.3836 721.647 63.344L718.666 61.7365C718.599 61.7002 718.543 61.6468 718.504 61.582C718.466 61.5172 718.445 61.4433 718.445 61.368C718.445 61.2928 718.466 61.2189 718.504 61.1541C718.543 61.0893 718.599 61.0359 718.666 60.9995L721.647 59.3888C721.719 59.3502 721.778 59.292 721.817 59.2212L723.448 56.2796C723.484 56.2134 723.538 56.1582 723.604 56.1197C723.67 56.0812 723.745 56.0609 723.821 56.0609C723.898 56.0609 723.973 56.0812 724.038 56.1197C724.104 56.1582 724.158 56.2134 724.195 56.2796L725.827 59.2212C725.866 59.2927 725.924 59.3493 725.995 59.3888" fill="#D15D64"/>
</g>
<g style="mix-blend-mode:lighten">
<path fill-rule="evenodd" clip-rule="evenodd" d="M207.707 139.073L209.179 139.869C209.246 139.905 209.302 139.959 209.341 140.024C209.38 140.089 209.4 140.163 209.4 140.238C209.4 140.314 209.38 140.388 209.341 140.453C209.302 140.518 209.246 140.572 209.179 140.608L207.707 141.402C207.636 141.441 207.578 141.499 207.538 141.569L206.734 143.022C206.698 143.088 206.643 143.144 206.578 143.182C206.512 143.221 206.436 143.241 206.36 143.241C206.283 143.241 206.208 143.221 206.142 143.182C206.076 143.144 206.022 143.088 205.985 143.022L205.181 141.569C205.142 141.499 205.083 141.44 205.011 141.402L203.54 140.608C203.473 140.572 203.417 140.518 203.378 140.453C203.339 140.388 203.318 140.314 203.318 140.238C203.318 140.163 203.339 140.089 203.378 140.024C203.417 139.959 203.473 139.905 203.54 139.869L205.011 139.074C205.083 139.036 205.142 138.979 205.181 138.909L205.985 137.456C206.022 137.39 206.077 137.335 206.142 137.296C206.208 137.258 206.283 137.238 206.36 137.238C206.436 137.238 206.511 137.258 206.577 137.296C206.643 137.335 206.697 137.39 206.734 137.456L207.539 138.909C207.579 138.979 207.639 139.037 207.709 139.075" fill="#FCD05C"/>
</g>
<path fill-rule="evenodd" clip-rule="evenodd" d="M392.13 76.3545L390.537 77.9246L392.13 76.3545ZM396.457 72.0822L394.866 73.6544L396.457 72.0822ZM392.207 76.5286C392.393 76.7124 392.614 76.8581 392.858 76.9576C393.101 77.057 393.362 77.1082 393.625 77.1082C393.888 77.1082 394.149 77.057 394.392 76.9576C394.635 76.8581 394.856 76.7124 395.042 76.5286C395.229 76.3449 395.376 76.1267 395.477 75.8867C395.578 75.6466 395.63 75.3893 395.63 75.1294C395.63 74.8696 395.578 74.6123 395.477 74.3722C395.376 74.1321 395.229 73.914 395.042 73.7302C394.856 73.5465 394.635 73.4007 394.392 73.3013C394.149 73.2018 393.888 73.1507 393.625 73.1507C393.362 73.1507 393.101 73.2018 392.858 73.3013C392.614 73.4007 392.393 73.5465 392.207 73.7302C392.021 73.914 391.873 74.1321 391.773 74.3722C391.672 74.6123 391.62 74.8696 391.62 75.1294C391.62 75.3893 391.672 75.6466 391.773 75.8867C391.873 76.1267 392.021 76.3449 392.207 76.5286V76.5286Z" stroke="#7B63AB" stroke-width="1.097" stroke-linecap="round" stroke-linejoin="round"/>
<g style="mix-blend-mode:lighten">
<path fill-rule="evenodd" clip-rule="evenodd" d="M990.052 108.522L993.034 110.132C993.101 110.168 993.157 110.222 993.196 110.287C993.235 110.351 993.255 110.425 993.255 110.501C993.255 110.576 993.235 110.65 993.196 110.715C993.157 110.779 993.101 110.833 993.034 110.869L990.052 112.479C989.98 112.519 989.922 112.578 989.883 112.65L988.252 115.591C988.216 115.657 988.162 115.713 988.096 115.751C988.03 115.79 987.955 115.81 987.879 115.81C987.802 115.81 987.728 115.79 987.662 115.751C987.596 115.713 987.542 115.657 987.506 115.591L985.874 112.647C985.834 112.577 985.775 112.518 985.704 112.48L982.722 110.872C982.655 110.836 982.6 110.783 982.561 110.718C982.522 110.653 982.502 110.579 982.502 110.504C982.502 110.429 982.522 110.355 982.561 110.29C982.6 110.225 982.655 110.172 982.722 110.135L985.704 108.525C985.775 108.486 985.834 108.428 985.874 108.358L987.504 105.415C987.541 105.349 987.595 105.294 987.661 105.255C987.726 105.217 987.801 105.197 987.878 105.197C987.954 105.197 988.029 105.217 988.095 105.255C988.161 105.294 988.215 105.349 988.251 105.415L989.883 108.358C989.922 108.428 989.981 108.486 990.052 108.525" fill="#D15D64"/>
</g>
<g style="mix-blend-mode:lighten">
<path fill-rule="evenodd" clip-rule="evenodd" d="M1188.09 150.178L1191.08 151.788C1191.14 151.824 1191.2 151.878 1191.24 151.942C1191.28 152.007 1191.3 152.081 1191.3 152.156C1191.3 152.232 1191.28 152.306 1191.24 152.37C1191.2 152.435 1191.14 152.489 1191.08 152.525L1188.09 154.136C1188.02 154.174 1187.96 154.232 1187.93 154.302L1186.3 157.246C1186.26 157.313 1186.21 157.368 1186.14 157.407C1186.07 157.446 1186 157.467 1185.92 157.467C1185.84 157.467 1185.77 157.446 1185.7 157.407C1185.64 157.368 1185.58 157.313 1185.55 157.246L1183.92 154.302C1183.88 154.232 1183.82 154.174 1183.74 154.136L1180.76 152.526C1180.7 152.49 1180.64 152.437 1180.6 152.372C1180.56 152.307 1180.54 152.233 1180.54 152.157C1180.54 152.082 1180.56 152.008 1180.6 151.943C1180.64 151.878 1180.7 151.825 1180.76 151.789L1183.75 150.178C1183.82 150.14 1183.88 150.082 1183.92 150.012L1185.55 147.069C1185.58 147.003 1185.64 146.948 1185.7 146.91C1185.77 146.872 1185.84 146.851 1185.92 146.851C1186 146.851 1186.07 146.872 1186.14 146.91C1186.2 146.948 1186.26 147.003 1186.29 147.069L1187.93 150.013C1187.97 150.083 1188.02 150.141 1188.1 150.18" fill="#E98333"/>
</g>
<g style="mix-blend-mode:lighten">
<path fill-rule="evenodd" clip-rule="evenodd" d="M1121.08 68.5788L1122.56 69.3745C1122.62 69.4109 1122.68 69.4644 1122.72 69.5294C1122.76 69.5944 1122.78 69.6685 1122.78 69.7441C1122.78 69.8196 1122.76 69.8937 1122.72 69.9587C1122.68 70.0237 1122.62 70.0772 1122.56 70.1136L1121.08 70.9072C1121.01 70.9463 1120.95 71.0044 1120.91 71.0749L1120.11 72.5275C1120.07 72.5939 1120.02 72.6494 1119.95 72.688C1119.89 72.7267 1119.81 72.747 1119.74 72.747C1119.66 72.747 1119.58 72.7267 1119.52 72.688C1119.45 72.6494 1119.4 72.5939 1119.36 72.5275L1118.56 71.0749C1118.52 71.0041 1118.46 70.9459 1118.39 70.9072L1116.92 70.1136C1116.85 70.0772 1116.79 70.0237 1116.75 69.9587C1116.72 69.8937 1116.69 69.8196 1116.69 69.7441C1116.69 69.6685 1116.72 69.5944 1116.75 69.5294C1116.79 69.4644 1116.85 69.4109 1116.92 69.3745L1118.39 68.5798C1118.46 68.5418 1118.52 68.4843 1118.56 68.4143L1119.36 66.9617C1119.4 66.8955 1119.45 66.8404 1119.52 66.802C1119.58 66.7635 1119.66 66.7433 1119.74 66.7433C1119.81 66.7433 1119.89 66.7635 1119.95 66.802C1120.02 66.8404 1120.07 66.8955 1120.11 66.9617L1120.92 68.4143C1120.96 68.4848 1121.02 68.5424 1121.09 68.5809" fill="#FCD05C"/>
</g>
<g style="mix-blend-mode:lighten">
<path fill-rule="evenodd" clip-rule="evenodd" d="M1255.01 232.197C1255.01 233.021 1254.68 233.811 1254.09 234.393C1253.5 234.975 1252.7 235.302 1251.86 235.301C1251.03 235.301 1250.23 234.973 1249.64 234.391C1249.05 233.808 1248.72 233.018 1248.72 232.194C1248.72 231.786 1248.8 231.383 1248.96 231.006C1249.12 230.629 1249.35 230.287 1249.64 229.999C1249.93 229.711 1250.28 229.482 1250.66 229.326C1251.04 229.17 1251.45 229.09 1251.87 229.09C1252.28 229.091 1252.69 229.171 1253.07 229.327C1253.45 229.484 1253.8 229.713 1254.09 230.001C1254.38 230.29 1254.62 230.632 1254.77 231.009C1254.93 231.386 1255.01 231.79 1255.01 232.197ZM73.4291 301.847L76.4116 303.457C76.4789 303.493 76.5351 303.546 76.5742 303.611C76.6134 303.676 76.634 303.751 76.634 303.826C76.634 303.902 76.6134 303.976 76.5742 304.041C76.5351 304.106 76.4789 304.16 76.4116 304.196L73.4291 305.805C73.3581 305.844 73.2996 305.902 73.2602 305.972L71.6294 308.915C71.5928 308.981 71.5388 309.036 71.4731 309.075C71.4074 309.113 71.3324 309.133 71.256 309.133C71.1796 309.133 71.1046 309.113 71.0389 309.075C70.9732 309.036 70.9192 308.981 70.8826 308.915L69.2507 305.972C69.2113 305.902 69.1523 305.844 69.0808 305.805L66.0993 304.196C66.032 304.16 65.9758 304.106 65.9367 304.041C65.8976 303.976 65.8769 303.902 65.8769 303.826C65.8769 303.751 65.8976 303.676 65.9367 303.611C65.9758 303.546 66.032 303.493 66.0993 303.457L69.0808 301.847C69.1523 301.809 69.2112 301.752 69.2507 301.682L70.8816 298.739C70.9182 298.673 70.9721 298.617 71.0378 298.579C71.1035 298.54 71.1785 298.52 71.2549 298.52C71.3313 298.52 71.4063 298.54 71.472 298.579C71.5377 298.617 71.5917 298.673 71.6283 298.739L73.2602 301.683C73.2992 301.754 73.3576 301.811 73.4291 301.849" fill="#D15D64"/>
</g>
<g style="mix-blend-mode:lighten">
<path fill-rule="evenodd" clip-rule="evenodd" d="M171.995 444.549L173.466 445.345C173.533 445.381 173.589 445.435 173.628 445.5C173.667 445.565 173.688 445.639 173.688 445.714C173.688 445.79 173.667 445.864 173.628 445.929C173.589 445.994 173.533 446.048 173.466 446.084L171.995 446.878C171.924 446.917 171.865 446.975 171.826 447.045L171.022 448.498C170.985 448.564 170.931 448.62 170.865 448.658C170.799 448.697 170.724 448.717 170.647 448.717C170.571 448.717 170.495 448.697 170.43 448.658C170.364 448.62 170.31 448.564 170.273 448.498L169.469 447.045C169.43 446.975 169.371 446.916 169.299 446.878L167.827 446.084C167.76 446.048 167.704 445.994 167.665 445.929C167.626 445.864 167.606 445.79 167.606 445.714C167.606 445.639 167.626 445.565 167.665 445.5C167.704 445.435 167.76 445.381 167.827 445.345L169.299 444.55C169.37 444.512 169.429 444.455 169.469 444.385L170.273 442.932C170.31 442.866 170.364 442.811 170.43 442.772C170.496 442.734 170.571 442.714 170.647 442.714C170.724 442.714 170.799 442.734 170.865 442.772C170.931 442.811 170.985 442.866 171.022 442.932L171.827 444.385C171.867 444.455 171.926 444.513 171.997 444.551" fill="#FCD05C"/>
</g>
<g style="mix-blend-mode:lighten">
<path fill-rule="evenodd" clip-rule="evenodd" d="M1747.59 524.011L1750.57 525.622C1750.64 525.658 1750.7 525.712 1750.73 525.777C1750.77 525.842 1750.79 525.916 1750.79 525.992C1750.79 526.067 1750.77 526.141 1750.73 526.206C1750.7 526.271 1750.64 526.325 1750.57 526.361L1747.59 527.97C1747.52 528.008 1747.46 528.067 1747.42 528.137L1745.79 531.079C1745.76 531.146 1745.7 531.201 1745.64 531.24C1745.57 531.279 1745.5 531.3 1745.42 531.3C1745.34 531.3 1745.27 531.279 1745.2 531.24C1745.13 531.201 1745.08 531.146 1745.04 531.079L1743.41 528.136C1743.37 528.065 1743.31 528.006 1743.24 527.968L1740.26 526.359C1740.19 526.323 1740.14 526.269 1740.1 526.204C1740.06 526.139 1740.04 526.065 1740.04 525.989C1740.04 525.914 1740.06 525.84 1740.1 525.775C1740.14 525.709 1740.19 525.656 1740.26 525.62L1743.24 524.009C1743.32 523.971 1743.37 523.914 1743.41 523.844L1745.04 520.901C1745.08 520.835 1745.13 520.78 1745.2 520.741C1745.27 520.703 1745.34 520.682 1745.42 520.682C1745.49 520.682 1745.57 520.703 1745.63 520.741C1745.7 520.78 1745.75 520.835 1745.79 520.901L1747.42 523.844C1747.46 523.914 1747.52 523.972 1747.59 524.01L1747.59 524.011ZM1439.06 68.4986L1440.46 69.257C1440.74 69.4108 1440.74 69.8124 1440.46 69.9619L1439.06 70.7235C1438.99 70.76 1438.93 70.8148 1438.89 70.8816L1438.12 72.2701C1438.09 72.3331 1438.04 72.3856 1437.97 72.4222C1437.91 72.4588 1437.84 72.4781 1437.77 72.4781C1437.69 72.4781 1437.62 72.4588 1437.56 72.4222C1437.5 72.3856 1437.45 72.3331 1437.41 72.2701L1436.64 70.8816C1436.6 70.8147 1436.55 70.76 1436.48 70.7235L1435.07 69.963C1435.01 69.9282 1434.95 69.8771 1434.92 69.8151C1434.88 69.7532 1434.86 69.6825 1434.86 69.6105C1434.86 69.5385 1434.88 69.4679 1434.92 69.4059C1434.95 69.3439 1435.01 69.2929 1435.07 69.2581L1436.48 68.4997C1436.55 68.4621 1436.6 68.4067 1436.64 68.3395L1437.41 66.951C1437.44 66.8871 1437.49 66.8338 1437.56 66.7967C1437.62 66.7595 1437.69 66.7399 1437.77 66.7399C1437.84 66.7399 1437.91 66.7595 1437.98 66.7967C1438.04 66.8338 1438.09 66.8871 1438.12 66.951L1438.89 68.3395C1438.93 68.4069 1438.99 68.4624 1439.06 68.4997" fill="#D15D64"/>
</g>
<g style="mix-blend-mode:lighten">
<path fill-rule="evenodd" clip-rule="evenodd" d="M1717.38 369.782L1718.85 370.578C1718.91 370.615 1718.97 370.668 1719.01 370.733C1719.05 370.798 1719.07 370.872 1719.07 370.948C1719.07 371.023 1719.05 371.097 1719.01 371.162C1718.97 371.227 1718.91 371.281 1718.85 371.317L1717.38 372.111C1717.3 372.15 1717.25 372.208 1717.21 372.279L1716.4 373.731C1716.37 373.798 1716.31 373.853 1716.25 373.892C1716.18 373.93 1716.1 373.951 1716.03 373.951C1715.95 373.951 1715.88 373.93 1715.81 373.892C1715.74 373.853 1715.69 373.798 1715.65 373.731L1714.85 372.279C1714.81 372.208 1714.75 372.15 1714.68 372.111L1713.21 371.317C1713.14 371.281 1713.09 371.227 1713.05 371.162C1713.01 371.097 1712.99 371.023 1712.99 370.948C1712.99 370.872 1713.01 370.798 1713.05 370.733C1713.09 370.668 1713.14 370.615 1713.21 370.578L1714.68 369.783C1714.75 369.745 1714.81 369.688 1714.85 369.618L1715.65 368.165C1715.69 368.099 1715.74 368.044 1715.81 368.006C1715.88 367.967 1715.95 367.947 1716.03 367.947C1716.1 367.947 1716.18 367.967 1716.25 368.006C1716.31 368.044 1716.37 368.099 1716.4 368.165L1717.21 369.618C1717.25 369.688 1717.31 369.746 1717.38 369.784" fill="#FCD05C"/>
</g>
<path fill-rule="evenodd" clip-rule="evenodd" d="M393.784 373.166L397.63 372.218L396.67 376.014L393.784 373.166Z" stroke="#E98333" stroke-width="1.097" stroke-linecap="round" stroke-linejoin="round"/>
<g style="mix-blend-mode:lighten">
<path fill-rule="evenodd" clip-rule="evenodd" d="M514.153 498.272L516.337 499.451L514.153 500.63L512.958 502.785L511.763 500.63L509.579 499.451L511.763 498.272L512.958 496.117L514.153 498.272Z" fill="#00A959"/>
</g>
<g style="mix-blend-mode:lighten">
<path fill-rule="evenodd" clip-rule="evenodd" d="M523.626 3.84885L526.606 5.45847C526.673 5.49482 526.729 5.54818 526.768 5.613C526.806 5.67781 526.827 5.7517 526.827 5.82697C526.827 5.90223 526.806 5.97612 526.768 6.04093C526.729 6.10575 526.673 6.15911 526.606 6.19546L523.625 7.80615C523.553 7.84451 523.494 7.90231 523.454 7.97278L521.824 10.9165C521.788 10.9832 521.734 11.0389 521.668 11.0778C521.602 11.1166 521.527 11.1372 521.45 11.1372C521.373 11.1372 521.298 11.1166 521.232 11.0778C521.166 11.0389 521.112 10.9832 521.075 10.9165L519.445 7.97278C519.405 7.90264 519.346 7.84491 519.275 7.80615L516.293 6.19653C516.226 6.16041 516.17 6.10714 516.131 6.04229C516.092 5.97745 516.072 5.90344 516.072 5.82803C516.072 5.75263 516.092 5.67861 516.131 5.61377C516.17 5.54893 516.226 5.49565 516.293 5.45954L519.275 3.84885C519.346 3.81009 519.405 3.75236 519.445 3.68222L521.076 0.739615C521.113 0.673708 521.167 0.618755 521.233 0.580486C521.299 0.542217 521.374 0.522034 521.45 0.522034C521.526 0.522034 521.601 0.542217 521.667 0.580486C521.732 0.618755 521.786 0.673708 521.823 0.739615L523.454 3.68329C523.494 3.75379 523.551 3.81146 523.624 3.85098" fill="#E98333"/>
</g>
<path fill-rule="evenodd" clip-rule="evenodd" d="M656.607 177.029L655.69 175.32C655.646 175.239 655.578 175.172 655.495 175.128L653.764 174.222C653.688 174.183 653.625 174.124 653.581 174.052C653.536 173.979 653.513 173.896 653.513 173.812C653.513 173.728 653.536 173.645 653.581 173.573C653.625 173.5 653.688 173.441 653.764 173.402L655.495 172.497C655.578 172.453 655.646 172.386 655.69 172.305L656.607 170.596C656.647 170.521 656.707 170.458 656.78 170.415C656.854 170.371 656.938 170.348 657.024 170.348C657.109 170.348 657.194 170.371 657.267 170.415C657.34 170.458 657.4 170.521 657.44 170.596L658.355 172.305C658.399 172.387 658.467 172.453 658.55 172.497L660.281 173.402C660.617 173.576 660.617 174.048 660.281 174.222L658.55 175.127C658.467 175.17 658.399 175.237 658.355 175.319L657.439 177.028C657.399 177.103 657.339 177.166 657.266 177.21C657.192 177.253 657.108 177.276 657.023 177.276C656.937 177.276 656.853 177.253 656.779 177.21C656.706 177.166 656.646 177.103 656.606 177.028L656.607 177.029Z" stroke="#7B63AB" stroke-width="1.097" stroke-linecap="round" stroke-linejoin="round"/>
<g style="mix-blend-mode:lighten">
<path fill-rule="evenodd" clip-rule="evenodd" d="M591.803 133.089L594.785 134.698C594.852 134.735 594.908 134.788 594.946 134.853C594.985 134.918 595.005 134.991 595.005 135.067C595.005 135.142 594.985 135.216 594.946 135.281C594.908 135.346 594.852 135.399 594.785 135.435L591.803 137.045C591.731 137.085 591.672 137.144 591.634 137.216L590.003 140.157C589.966 140.224 589.912 140.279 589.847 140.317C589.781 140.356 589.706 140.376 589.629 140.376C589.553 140.376 589.478 140.356 589.412 140.317C589.347 140.279 589.293 140.224 589.256 140.157L587.624 137.214C587.585 137.143 587.526 137.085 587.454 137.046L584.473 135.438C584.406 135.402 584.35 135.349 584.312 135.284C584.273 135.219 584.252 135.145 584.252 135.07C584.252 134.995 584.273 134.921 584.312 134.856C584.35 134.791 584.406 134.738 584.473 134.701L587.454 133.091C587.526 133.052 587.585 132.995 587.624 132.924L589.255 129.982C589.292 129.915 589.346 129.86 589.411 129.822C589.477 129.783 589.552 129.763 589.628 129.763C589.705 129.763 589.78 129.783 589.845 129.822C589.911 129.86 589.965 129.915 590.002 129.982L591.634 132.924C591.673 132.995 591.731 133.052 591.803 133.091" fill="#D15D64"/>
</g>
<g style="mix-blend-mode:lighten">
<path fill-rule="evenodd" clip-rule="evenodd" d="M141.61 96.7733L144.59 98.383C144.657 98.4193 144.713 98.4727 144.751 98.5375C144.79 98.6023 144.811 98.6762 144.811 98.7514C144.811 98.8267 144.79 98.9006 144.751 98.9654C144.713 99.0302 144.657 99.0836 144.59 99.1199L141.608 100.731C141.536 100.769 141.478 100.827 141.439 100.897L139.808 103.841C139.771 103.907 139.717 103.962 139.652 104.001C139.586 104.039 139.511 104.06 139.435 104.06C139.358 104.06 139.283 104.039 139.217 104.001C139.152 103.962 139.098 103.907 139.061 103.841L137.43 100.897C137.39 100.827 137.33 100.769 137.257 100.731L134.279 99.121C134.212 99.0849 134.156 99.0316 134.117 98.9668C134.078 98.9019 134.057 98.8279 134.057 98.7525C134.057 98.6771 134.078 98.6031 134.117 98.5383C134.156 98.4734 134.212 98.4201 134.279 98.384L137.259 96.7733C137.331 96.7346 137.389 96.6769 137.429 96.6067L139.061 93.6641C139.098 93.5982 139.152 93.5433 139.218 93.505C139.283 93.4667 139.358 93.4465 139.435 93.4465C139.511 93.4465 139.586 93.4667 139.651 93.505C139.717 93.5433 139.771 93.5982 139.808 93.6641L141.439 96.6078C141.478 96.6783 141.536 96.736 141.608 96.7755" fill="#E98333"/>
</g>
<g style="mix-blend-mode:lighten">
<path fill-rule="evenodd" clip-rule="evenodd" d="M273.457 21.7822C273.457 22.6058 273.125 23.3956 272.535 23.9777C271.944 24.5597 271.144 24.8865 270.309 24.8861C269.475 24.8857 268.675 24.5581 268.085 23.9754C267.495 23.3927 267.164 22.6026 267.164 21.779C267.165 21.3712 267.246 20.9674 267.404 20.5907C267.563 20.214 267.795 19.8718 268.087 19.5836C268.379 19.2953 268.726 19.0668 269.108 18.9109C269.49 18.755 269.899 18.6749 270.313 18.6751C270.726 18.6753 271.135 18.7559 271.516 18.9121C271.898 19.0684 272.245 19.2973 272.537 19.5858C272.829 19.8743 273.061 20.2168 273.218 20.5937C273.376 20.9705 273.458 21.3744 273.457 21.7822Z" fill="#D15D64"/>
</g>
<path fill-rule="evenodd" clip-rule="evenodd" d="M4.04053 180.233L3.12391 178.525C3.07959 178.443 3.01182 178.376 2.92911 178.332L1.19759 177.427C1.12191 177.387 1.05854 177.328 1.01434 177.256C0.970139 177.184 0.946777 177.101 0.946777 177.016C0.946777 176.932 0.970139 176.849 1.01434 176.777C1.05854 176.705 1.12191 176.646 1.19759 176.606L2.92911 175.702C3.01174 175.658 3.07948 175.591 3.12391 175.509L4.04053 173.8C4.08046 173.725 4.14038 173.663 4.21381 173.619C4.28724 173.575 4.37139 173.552 4.45718 173.552C4.54296 173.552 4.62712 173.575 4.70055 173.619C4.77398 173.663 4.8339 173.725 4.87383 173.8L5.78828 175.509C5.8326 175.591 5.90037 175.658 5.98308 175.702L7.7146 176.606C8.05009 176.78 8.05009 177.252 7.7146 177.427L5.98308 178.331C5.90022 178.375 5.83239 178.442 5.78828 178.523L4.87275 180.232C4.83282 180.307 4.7729 180.37 4.69947 180.414C4.62604 180.458 4.54188 180.481 4.4561 180.481C4.37031 180.481 4.28616 180.458 4.21273 180.414C4.1393 180.37 4.07938 180.307 4.03945 180.232L4.04053 180.233Z" stroke="#7B63AB" stroke-width="1.097" stroke-linecap="round" stroke-linejoin="round"/>
<g style="mix-blend-mode:lighten">
<path fill-rule="evenodd" clip-rule="evenodd" d="M1778.98 239.897L1781.96 241.507C1782.02 241.543 1782.08 241.597 1782.12 241.662C1782.16 241.727 1782.18 241.801 1782.18 241.877C1782.18 241.952 1782.16 242.026 1782.12 242.091C1782.08 242.156 1782.02 242.21 1781.96 242.246L1778.98 243.856C1778.9 243.894 1778.85 243.952 1778.81 244.022L1777.18 246.965C1777.14 247.032 1777.09 247.087 1777.02 247.126C1776.95 247.165 1776.88 247.186 1776.8 247.186C1776.73 247.186 1776.65 247.165 1776.58 247.126C1776.52 247.087 1776.46 247.032 1776.43 246.965L1774.8 244.022C1774.76 243.951 1774.7 243.893 1774.62 243.856L1771.65 242.246C1771.58 242.21 1771.52 242.157 1771.48 242.091C1771.44 242.026 1771.42 241.952 1771.42 241.877C1771.42 241.801 1771.44 241.727 1771.48 241.662C1771.52 241.597 1771.58 241.543 1771.65 241.507L1774.63 239.897C1774.7 239.86 1774.76 239.802 1774.8 239.732L1776.43 236.789C1776.46 236.723 1776.52 236.668 1776.58 236.629C1776.65 236.591 1776.72 236.57 1776.8 236.57C1776.88 236.57 1776.95 236.591 1777.02 236.629C1777.08 236.668 1777.14 236.723 1777.17 236.789L1778.81 239.733C1778.85 239.803 1778.9 239.861 1778.98 239.899" fill="#D15D64"/>
</g>
<g style="mix-blend-mode:lighten">
<path fill-rule="evenodd" clip-rule="evenodd" d="M1720.62 199.957L1722.09 200.751C1722.16 200.787 1722.22 200.84 1722.26 200.905C1722.29 200.97 1722.32 201.045 1722.32 201.12C1722.32 201.196 1722.29 201.27 1722.26 201.335C1722.22 201.4 1722.16 201.453 1722.09 201.49L1720.62 202.284C1720.55 202.323 1720.49 202.381 1720.45 202.452L1719.65 203.905C1719.61 203.971 1719.56 204.026 1719.49 204.064C1719.43 204.103 1719.35 204.123 1719.27 204.123C1719.2 204.123 1719.12 204.103 1719.06 204.064C1718.99 204.026 1718.94 203.971 1718.9 203.905L1718.1 202.452C1718.06 202.382 1718 202.324 1717.93 202.285L1716.45 201.492C1716.39 201.455 1716.33 201.402 1716.29 201.337C1716.25 201.272 1716.23 201.198 1716.23 201.122C1716.23 201.047 1716.25 200.973 1716.29 200.908C1716.33 200.843 1716.39 200.789 1716.45 200.753L1717.93 199.959C1718 199.92 1718.06 199.862 1718.1 199.791L1718.9 198.339C1718.94 198.273 1718.99 198.217 1719.06 198.179C1719.12 198.141 1719.2 198.12 1719.27 198.12C1719.35 198.12 1719.43 198.141 1719.49 198.179C1719.56 198.217 1719.61 198.273 1719.65 198.339L1720.45 199.791C1720.49 199.862 1720.55 199.92 1720.62 199.959" fill="#7B63AB"/>
</g>
<g style="mix-blend-mode:lighten">
<path fill-rule="evenodd" clip-rule="evenodd" d="M1693.37 12.9576L1694.78 13.7159C1695.06 13.8708 1695.06 14.2713 1694.78 14.423L1693.37 15.1814C1693.3 15.2185 1693.25 15.274 1693.21 15.3416L1692.44 16.7301C1692.41 16.7931 1692.35 16.8456 1692.29 16.8822C1692.23 16.9188 1692.16 16.9381 1692.08 16.9381C1692.01 16.9381 1691.94 16.9188 1691.88 16.8822C1691.81 16.8456 1691.76 16.7931 1691.73 16.7301L1690.96 15.3416C1690.92 15.274 1690.86 15.2184 1690.79 15.1814L1689.39 14.423C1689.32 14.3884 1689.27 14.3373 1689.23 14.2751C1689.19 14.2128 1689.17 14.1418 1689.17 14.0695C1689.17 13.9971 1689.19 13.9261 1689.23 13.8639C1689.27 13.8017 1689.32 13.7506 1689.39 13.7159L1690.79 12.9576C1690.86 12.92 1690.92 12.8646 1690.96 12.7974L1691.73 11.411C1691.76 11.3472 1691.81 11.2938 1691.87 11.2567C1691.94 11.2195 1692.01 11.1999 1692.08 11.1999C1692.16 11.1999 1692.23 11.2195 1692.29 11.2567C1692.36 11.2938 1692.41 11.3472 1692.44 11.411L1693.21 12.7974C1693.25 12.8648 1693.3 12.9203 1693.37 12.9576Z" fill="#D15D64"/>
</g>
<g style="mix-blend-mode:lighten">
<path fill-rule="evenodd" clip-rule="evenodd" d="M1748.76 85.6683L1750.23 86.4641C1750.3 86.5005 1750.35 86.554 1750.39 86.619C1750.43 86.684 1750.45 86.7581 1750.45 86.8336C1750.45 86.9091 1750.43 86.9833 1750.39 87.0483C1750.35 87.1133 1750.3 87.1668 1750.23 87.2032L1748.76 87.9968C1748.69 88.0359 1748.63 88.094 1748.59 88.1645L1747.79 89.6171C1747.75 89.6835 1747.7 89.739 1747.63 89.7776C1747.56 89.8162 1747.49 89.8366 1747.41 89.8366C1747.34 89.8366 1747.26 89.8162 1747.19 89.7776C1747.13 89.739 1747.07 89.6835 1747.04 89.6171L1746.23 88.1645C1746.19 88.0937 1746.14 88.0355 1746.06 87.9968L1744.59 87.2032C1744.52 87.1668 1744.47 87.1133 1744.43 87.0483C1744.39 86.9833 1744.37 86.9091 1744.37 86.8336C1744.37 86.7581 1744.39 86.684 1744.43 86.619C1744.47 86.554 1744.52 86.5005 1744.59 86.4641L1746.06 85.6694C1746.14 85.6314 1746.19 85.5739 1746.23 85.5038L1747.04 84.0512C1747.07 83.9851 1747.13 83.9299 1747.19 83.8915C1747.26 83.8531 1747.34 83.8329 1747.41 83.8329C1747.49 83.8329 1747.56 83.8531 1747.63 83.8915C1747.7 83.9299 1747.75 83.9851 1747.79 84.0512L1748.59 85.5038C1748.63 85.5743 1748.69 85.632 1748.76 85.6705" fill="#FCD05C"/>
</g>
<mask id="mask0_16_893" style="mask-type:alpha" maskUnits="userSpaceOnUse" x="1659" y="424" width="7" height="7">
<path d="M1665.62 424.626V430.632H1659.53V424.625H1665.62V424.626Z" fill="white"/>
</mask>
<g mask="url(#mask0_16_893)">
<path fill-rule="evenodd" clip-rule="evenodd" d="M1663.93 426.466L1665.4 427.26C1665.46 427.296 1665.52 427.35 1665.56 427.415C1665.6 427.48 1665.62 427.554 1665.62 427.63C1665.62 427.705 1665.6 427.779 1665.56 427.845C1665.52 427.91 1665.46 427.963 1665.4 427.999L1663.93 428.793C1663.85 428.831 1663.8 428.889 1663.76 428.959L1662.95 430.412C1662.91 430.478 1662.86 430.534 1662.79 430.573C1662.73 430.611 1662.65 430.632 1662.58 430.632C1662.5 430.632 1662.43 430.611 1662.36 430.573C1662.29 430.534 1662.24 430.478 1662.2 430.412L1661.4 428.959C1661.36 428.889 1661.3 428.832 1661.23 428.793L1659.76 427.999C1659.69 427.963 1659.64 427.909 1659.6 427.844C1659.56 427.779 1659.54 427.705 1659.54 427.63C1659.54 427.554 1659.56 427.48 1659.6 427.415C1659.64 427.35 1659.69 427.296 1659.76 427.26L1661.23 426.465C1661.3 426.427 1661.36 426.368 1661.4 426.298L1662.2 424.845C1662.24 424.779 1662.3 424.723 1662.36 424.685C1662.43 424.646 1662.5 424.625 1662.58 424.625C1662.66 424.625 1662.73 424.646 1662.8 424.685C1662.86 424.723 1662.92 424.779 1662.95 424.845L1663.76 426.298C1663.8 426.368 1663.85 426.426 1663.93 426.464" fill="#7B63AB"/>
</g>
<g style="mix-blend-mode:lighten">
<path fill-rule="evenodd" clip-rule="evenodd" d="M1447.82 477.017L1450.8 478.627C1450.87 478.663 1450.93 478.717 1450.96 478.781C1451 478.846 1451.02 478.92 1451.02 478.995C1451.02 479.071 1451 479.144 1450.96 479.209C1450.93 479.274 1450.87 479.327 1450.8 479.364L1447.82 480.973C1447.75 481.012 1447.69 481.07 1447.65 481.14L1446.02 484.083C1445.99 484.149 1445.93 484.205 1445.87 484.244C1445.8 484.283 1445.73 484.303 1445.65 484.303C1445.57 484.303 1445.5 484.283 1445.43 484.244C1445.37 484.205 1445.31 484.149 1445.27 484.083L1443.65 481.14C1443.61 481.069 1443.55 481.011 1443.47 480.973L1440.49 479.364C1440.43 479.328 1440.37 479.274 1440.33 479.21C1440.29 479.145 1440.27 479.071 1440.27 478.995C1440.27 478.92 1440.29 478.846 1440.33 478.781C1440.37 478.716 1440.43 478.663 1440.49 478.627L1443.47 477.017C1443.55 476.979 1443.6 476.92 1443.64 476.85L1445.27 473.907C1445.31 473.841 1445.36 473.785 1445.43 473.747C1445.5 473.708 1445.57 473.688 1445.65 473.688C1445.72 473.688 1445.8 473.708 1445.86 473.747C1445.93 473.785 1445.98 473.841 1446.02 473.907L1447.65 476.851C1447.69 476.922 1447.75 476.981 1447.83 477.019" fill="#FCD05C"/>
</g>
<g style="mix-blend-mode:lighten">
<path fill-rule="evenodd" clip-rule="evenodd" d="M1327.59 322.707L1329 323.465C1329.28 323.619 1329.28 324.021 1329 324.17L1327.59 324.931C1327.52 324.968 1327.46 325.024 1327.43 325.091L1326.66 326.477C1326.62 326.54 1326.57 326.593 1326.51 326.63C1326.45 326.666 1326.37 326.685 1326.3 326.685C1326.23 326.685 1326.16 326.666 1326.09 326.63C1326.03 326.593 1325.98 326.54 1325.94 326.477L1325.18 325.089C1325.14 325.022 1325.08 324.967 1325.01 324.931L1323.6 324.17C1323.54 324.136 1323.49 324.085 1323.45 324.023C1323.41 323.961 1323.39 323.89 1323.39 323.818C1323.39 323.746 1323.41 323.675 1323.45 323.613C1323.49 323.551 1323.54 323.5 1323.6 323.465L1325.01 322.707C1325.08 322.669 1325.14 322.614 1325.17 322.547L1325.94 321.158C1325.98 321.095 1326.03 321.041 1326.09 321.004C1326.15 320.967 1326.23 320.947 1326.3 320.947C1326.37 320.947 1326.45 320.967 1326.51 321.004C1326.57 321.041 1326.62 321.095 1326.66 321.158L1327.43 322.547C1327.46 322.614 1327.52 322.67 1327.59 322.707Z" fill="#D15D64"/>
</g>
<g style="mix-blend-mode:lighten">
<path fill-rule="evenodd" clip-rule="evenodd" d="M1565.87 395.417L1567.34 396.212C1567.41 396.249 1567.46 396.302 1567.5 396.367C1567.54 396.432 1567.56 396.506 1567.56 396.582C1567.56 396.657 1567.54 396.732 1567.5 396.797C1567.46 396.862 1567.41 396.915 1567.34 396.952L1565.87 397.745C1565.8 397.784 1565.74 397.842 1565.7 397.913L1564.89 399.365C1564.86 399.432 1564.8 399.487 1564.74 399.526C1564.67 399.565 1564.6 399.585 1564.52 399.585C1564.44 399.585 1564.37 399.565 1564.3 399.526C1564.24 399.487 1564.18 399.432 1564.15 399.365L1563.34 397.913C1563.3 397.842 1563.24 397.784 1563.17 397.745L1561.7 396.952C1561.63 396.915 1561.58 396.862 1561.54 396.797C1561.5 396.732 1561.48 396.657 1561.48 396.582C1561.48 396.506 1561.5 396.432 1561.54 396.367C1561.58 396.302 1561.63 396.249 1561.7 396.212L1563.17 395.418C1563.24 395.38 1563.3 395.322 1563.34 395.252L1564.15 393.8C1564.18 393.733 1564.24 393.678 1564.3 393.64C1564.37 393.601 1564.44 393.581 1564.52 393.581C1564.6 393.581 1564.67 393.601 1564.74 393.64C1564.8 393.678 1564.86 393.733 1564.89 393.8L1565.7 395.252C1565.74 395.323 1565.8 395.38 1565.87 395.419" fill="#FCD05C"/>
</g>
<path fill-rule="evenodd" clip-rule="evenodd" d="M1801.73 442.204L1803.63 441.625L1805.54 442.204L1804.95 440.322L1805.54 438.44L1803.63 439.02L1801.73 438.44L1802.31 440.322L1801.73 442.204Z" stroke="#00A959" stroke-width="1.097" stroke-linecap="round" stroke-linejoin="round"/>
<mask id="mask1_16_893" style="mask-type:alpha" maskUnits="userSpaceOnUse" x="1679" y="626" width="11" height="11">
<path d="M1679.08 626.101H1689.83V636.716H1679.08V626.101Z" fill="white"/>
</mask>
<g mask="url(#mask1_16_893)">
<path fill-rule="evenodd" clip-rule="evenodd" d="M1686.63 629.429L1689.61 631.039C1689.68 631.075 1689.74 631.129 1689.77 631.193C1689.81 631.258 1689.83 631.332 1689.83 631.407C1689.83 631.483 1689.81 631.556 1689.77 631.621C1689.74 631.686 1689.68 631.739 1689.61 631.776L1686.63 633.389C1686.56 633.427 1686.5 633.485 1686.46 633.556L1684.83 636.497C1684.79 636.563 1684.74 636.618 1684.68 636.656C1684.61 636.694 1684.53 636.714 1684.46 636.714C1684.38 636.714 1684.31 636.694 1684.24 636.656C1684.18 636.618 1684.12 636.563 1684.08 636.497L1682.45 633.554C1682.41 633.483 1682.35 633.425 1682.28 633.386L1679.3 631.776C1679.23 631.739 1679.18 631.686 1679.14 631.621C1679.1 631.556 1679.08 631.483 1679.08 631.407C1679.08 631.332 1679.1 631.258 1679.14 631.193C1679.18 631.129 1679.23 631.075 1679.3 631.039L1682.28 629.429C1682.35 629.391 1682.41 629.332 1682.45 629.261L1684.08 626.318C1684.12 626.252 1684.17 626.197 1684.24 626.159C1684.3 626.12 1684.38 626.1 1684.46 626.1C1684.53 626.1 1684.61 626.12 1684.67 626.159C1684.74 626.197 1684.79 626.252 1684.83 626.318L1686.46 629.261C1686.5 629.333 1686.56 629.391 1686.63 629.429" fill="#D15D64"/>
</g>
<path fill-rule="evenodd" clip-rule="evenodd" d="M25.2647 508.934L23.6717 510.504L25.2647 508.934ZM29.5913 504.662L28.0005 506.232L29.5913 504.662ZM25.3415 509.108C25.7175 509.479 26.2275 509.688 26.7592 509.688C27.2909 509.688 27.8009 509.479 28.1769 509.108C28.5529 508.737 28.7641 508.234 28.7641 507.709C28.7641 507.184 28.5529 506.681 28.1769 506.31C27.8009 505.939 27.2909 505.73 26.7592 505.73C26.2275 505.73 25.7175 505.939 25.3415 506.31C24.9655 506.681 24.7543 507.184 24.7543 507.709C24.7543 508.234 24.9655 508.737 25.3415 509.108V509.108Z" stroke="#E98333" stroke-width="1.097" stroke-linecap="round" stroke-linejoin="round"/>
<g style="mix-blend-mode:lighten">
<path fill-rule="evenodd" clip-rule="evenodd" d="M207.707 1243.68L209.179 1242.88C209.246 1242.85 209.302 1242.8 209.341 1242.73C209.38 1242.67 209.4 1242.59 209.4 1242.52C209.4 1242.44 209.38 1242.37 209.341 1242.3C209.302 1242.24 209.246 1242.18 209.179 1242.15L207.707 1241.35C207.636 1241.31 207.578 1241.25 207.538 1241.18L206.734 1239.73C206.698 1239.67 206.643 1239.61 206.578 1239.57C206.512 1239.53 206.436 1239.51 206.36 1239.51C206.283 1239.51 206.208 1239.53 206.142 1239.57C206.076 1239.61 206.022 1239.67 205.985 1239.73L205.181 1241.18C205.142 1241.26 205.083 1241.31 205.011 1241.35L203.54 1242.15C203.473 1242.18 203.417 1242.24 203.378 1242.3C203.339 1242.37 203.318 1242.44 203.318 1242.52C203.318 1242.59 203.339 1242.67 203.378 1242.73C203.417 1242.8 203.473 1242.85 203.54 1242.88L205.011 1243.68C205.083 1243.72 205.141 1243.78 205.181 1243.85L205.985 1245.3C206.148 1245.59 206.572 1245.59 206.734 1245.3L207.539 1243.85C207.579 1243.78 207.638 1243.72 207.709 1243.68" fill="#FCD05C"/>
</g>
<g style="mix-blend-mode:lighten">
<path fill-rule="evenodd" clip-rule="evenodd" d="M1255.01 1171.05C1255.01 1170.23 1254.68 1169.44 1254.09 1168.86C1253.5 1168.28 1252.7 1167.95 1251.86 1167.95C1251.03 1167.95 1250.23 1168.28 1249.64 1168.86C1249.05 1169.44 1248.72 1170.23 1248.72 1171.06C1248.72 1171.88 1249.05 1172.67 1249.64 1173.25C1250.23 1173.83 1251.03 1174.16 1251.87 1174.16C1252.7 1174.16 1253.5 1173.83 1254.09 1173.25C1254.68 1172.67 1255.01 1171.88 1255.01 1171.05V1171.05ZM73.429 1067.36L76.4116 1065.75C76.4789 1065.71 76.5351 1065.66 76.5742 1065.6C76.6134 1065.53 76.634 1065.46 76.634 1065.38C76.634 1065.31 76.6134 1065.23 76.5742 1065.17C76.5351 1065.1 76.4789 1065.05 76.4116 1065.01L73.429 1063.4C73.3579 1063.36 73.2994 1063.3 73.2602 1063.23L71.6293 1060.29C71.5928 1060.23 71.5388 1060.17 71.4731 1060.13C71.4074 1060.09 71.3324 1060.07 71.256 1060.07C71.1796 1060.07 71.1046 1060.09 71.0389 1060.13C70.9732 1060.17 70.9192 1060.23 70.8826 1060.29L69.2507 1063.23C69.2114 1063.3 69.1525 1063.36 69.0808 1063.4L66.0993 1065.01C66.0325 1065.05 65.9769 1065.1 65.9381 1065.17C65.8993 1065.23 65.8788 1065.3 65.8788 1065.38C65.8788 1065.46 65.8993 1065.53 65.9381 1065.59C65.9769 1065.66 66.0325 1065.71 66.0993 1065.75L69.0808 1067.36C69.1522 1067.4 69.2106 1067.46 69.2507 1067.53L70.8815 1070.47C71.0439 1070.76 71.4681 1070.76 71.6283 1070.47L73.2602 1067.52C73.2994 1067.45 73.3579 1067.4 73.429 1067.36" fill="#D15D64"/>
</g>
<g style="mix-blend-mode:lighten">
<path fill-rule="evenodd" clip-rule="evenodd" d="M171.995 808.963L173.466 808.168C173.533 808.132 173.589 808.078 173.628 808.013C173.667 807.948 173.688 807.874 173.688 807.798C173.688 807.723 173.667 807.649 173.628 807.584C173.589 807.519 173.533 807.465 173.466 807.429L171.995 806.635C171.924 806.597 171.865 806.539 171.826 806.469L171.022 805.016C170.985 804.95 170.931 804.894 170.865 804.856C170.799 804.817 170.724 804.797 170.647 804.797C170.571 804.797 170.495 804.817 170.43 804.856C170.364 804.894 170.31 804.95 170.273 805.016L169.469 806.469C169.43 806.54 169.371 806.599 169.299 806.638L167.827 807.43C167.76 807.466 167.704 807.52 167.665 807.585C167.626 807.65 167.606 807.724 167.606 807.8C167.606 807.875 167.626 807.949 167.665 808.014C167.704 808.079 167.76 808.133 167.827 808.169L169.299 808.965C169.37 809.004 169.429 809.061 169.469 809.131L170.273 810.584C170.435 810.876 170.859 810.876 171.022 810.584L171.827 809.131C171.866 809.061 171.925 809.003 171.997 808.965" fill="#FCD05C"/>
</g>
<g style="mix-blend-mode:lighten">
<path fill-rule="evenodd" clip-rule="evenodd" d="M1524.66 1095.13L1527.64 1093.52C1527.71 1093.48 1527.76 1093.43 1527.8 1093.37C1527.84 1093.3 1527.86 1093.23 1527.86 1093.15C1527.86 1093.08 1527.84 1093 1527.8 1092.94C1527.76 1092.87 1527.71 1092.82 1527.64 1092.78L1524.66 1091.17C1524.59 1091.13 1524.53 1091.07 1524.49 1091L1522.86 1088.06C1522.82 1088 1522.77 1087.94 1522.7 1087.9C1522.64 1087.86 1522.56 1087.84 1522.49 1087.84C1522.41 1087.84 1522.33 1087.86 1522.27 1087.9C1522.2 1087.94 1522.15 1088 1522.11 1088.06L1520.48 1091C1520.44 1091.08 1520.38 1091.13 1520.31 1091.17L1517.33 1092.78C1517.26 1092.82 1517.2 1092.87 1517.17 1092.94C1517.13 1093 1517.11 1093.07 1517.11 1093.15C1517.11 1093.23 1517.13 1093.3 1517.17 1093.37C1517.2 1093.43 1517.26 1093.48 1517.33 1093.52L1520.31 1095.13C1520.38 1095.17 1520.44 1095.23 1520.48 1095.3L1522.11 1098.24C1522.27 1098.53 1522.7 1098.53 1522.86 1098.24L1524.49 1095.3C1524.53 1095.22 1524.59 1095.17 1524.66 1095.13" fill="#D15D64"/>
</g>
<g style="mix-blend-mode:lighten">
<path fill-rule="evenodd" clip-rule="evenodd" d="M1466.31 1120.85L1467.78 1120.05C1467.84 1120.02 1467.9 1119.96 1467.94 1119.9C1467.98 1119.83 1468 1119.76 1468 1119.68C1468 1119.61 1467.98 1119.53 1467.94 1119.47C1467.9 1119.4 1467.84 1119.35 1467.78 1119.31L1466.31 1118.52C1466.23 1118.48 1466.18 1118.42 1466.14 1118.35L1465.33 1116.9C1465.3 1116.84 1465.24 1116.78 1465.18 1116.74C1465.11 1116.7 1465.03 1116.68 1464.96 1116.68C1464.88 1116.68 1464.81 1116.7 1464.74 1116.74C1464.67 1116.78 1464.62 1116.84 1464.58 1116.9L1463.78 1118.35C1463.74 1118.42 1463.68 1118.48 1463.61 1118.52L1462.14 1119.32C1462.07 1119.35 1462.01 1119.41 1461.98 1119.47C1461.94 1119.54 1461.92 1119.61 1461.92 1119.69C1461.92 1119.76 1461.94 1119.84 1461.98 1119.9C1462.01 1119.97 1462.07 1120.02 1462.14 1120.06L1463.61 1120.85C1463.68 1120.89 1463.74 1120.95 1463.78 1121.02L1464.58 1122.47C1464.75 1122.76 1465.17 1122.76 1465.33 1122.47L1466.14 1121.02C1466.18 1120.95 1466.24 1120.89 1466.31 1120.85" fill="#7B63AB"/>
</g>
<path fill-rule="evenodd" clip-rule="evenodd" d="M393.784 916.591L397.63 917.539L396.67 913.743L393.784 916.591Z" stroke="#E98333" stroke-width="1.097" stroke-linecap="round" stroke-linejoin="round"/>
<g style="mix-blend-mode:lighten">
<path fill-rule="evenodd" clip-rule="evenodd" d="M514.153 756.973L516.337 755.794L514.153 754.617L512.958 752.461L511.763 754.617L509.579 755.793L511.763 756.973L512.958 759.129L514.153 756.973Z" fill="#00A959"/>
</g>
<g style="mix-blend-mode:lighten">
<path fill-rule="evenodd" clip-rule="evenodd" d="M141.61 1270.3L144.59 1268.69C144.657 1268.65 144.714 1268.6 144.753 1268.53C144.792 1268.47 144.813 1268.4 144.813 1268.32C144.813 1268.24 144.792 1268.17 144.753 1268.1C144.714 1268.04 144.657 1267.99 144.59 1267.95L141.608 1266.34C141.536 1266.3 141.478 1266.24 141.439 1266.17L139.808 1263.23C139.771 1263.17 139.717 1263.11 139.652 1263.07C139.586 1263.03 139.511 1263.01 139.435 1263.01C139.358 1263.01 139.283 1263.03 139.217 1263.07C139.152 1263.11 139.098 1263.17 139.061 1263.23L137.43 1266.17C137.39 1266.25 137.33 1266.3 137.257 1266.34L134.279 1267.95C134.212 1267.99 134.156 1268.04 134.117 1268.11C134.078 1268.17 134.057 1268.25 134.057 1268.32C134.057 1268.4 134.078 1268.47 134.117 1268.53C134.156 1268.6 134.212 1268.65 134.279 1268.69L137.259 1270.3C137.331 1270.34 137.389 1270.4 137.429 1270.47L139.061 1273.41C139.223 1273.7 139.646 1273.7 139.808 1273.41L141.439 1270.47C141.478 1270.4 141.536 1270.34 141.608 1270.3" fill="#E98333"/>
</g>
<g style="mix-blend-mode:lighten">
<path fill-rule="evenodd" clip-rule="evenodd" d="M273.457 1377.2C273.457 1376.37 273.125 1375.58 272.535 1375C271.944 1374.42 271.144 1374.09 270.309 1374.09C269.475 1374.09 268.675 1374.42 268.085 1375C267.495 1375.59 267.164 1376.38 267.164 1377.2C267.165 1378.02 267.497 1378.81 268.088 1379.4C268.678 1379.98 269.479 1380.3 270.313 1380.3C271.148 1380.3 271.948 1379.98 272.537 1379.39C273.127 1378.81 273.458 1378.02 273.457 1377.2" fill="#D15D64"/>
</g>
<path fill-rule="evenodd" clip-rule="evenodd" d="M4.04053 1215.19L3.12391 1216.9C3.07959 1216.99 3.01182 1217.05 2.92911 1217.1L1.19759 1218C1.12191 1218.04 1.05854 1218.1 1.01434 1218.17C0.970139 1218.24 0.946777 1218.33 0.946777 1218.41C0.946777 1218.5 0.970139 1218.58 1.01434 1218.65C1.05854 1218.72 1.12191 1218.78 1.19759 1218.82L2.92911 1219.73C3.01136 1219.77 3.08062 1219.84 3.12391 1219.92L4.04053 1221.63C4.21693 1221.96 4.69526 1221.96 4.87382 1221.63L5.78828 1219.92C5.8326 1219.84 5.90037 1219.77 5.98307 1219.73L7.71459 1218.82C7.79028 1218.78 7.85364 1218.72 7.89784 1218.65C7.94204 1218.58 7.96541 1218.5 7.96541 1218.41C7.96541 1218.33 7.94204 1218.24 7.89784 1218.17C7.85364 1218.1 7.79028 1218.04 7.71459 1218L5.98307 1217.1C5.90021 1217.05 5.83239 1216.99 5.78828 1216.9L4.87274 1215.2C4.83281 1215.12 4.77289 1215.06 4.69946 1215.01C4.62603 1214.97 4.54188 1214.95 4.45609 1214.95C4.37031 1214.95 4.28616 1214.97 4.21273 1215.01C4.1393 1215.06 4.07938 1215.12 4.03945 1215.2L4.04053 1215.19Z" stroke="#7B63AB" stroke-width="1.097" stroke-linecap="round" stroke-linejoin="round"/>
<g style="mix-blend-mode:lighten">
<path fill-rule="evenodd" clip-rule="evenodd" d="M1778.98 1147.47L1781.96 1145.86C1782.02 1145.82 1782.08 1145.77 1782.12 1145.7C1782.16 1145.64 1782.18 1145.56 1782.18 1145.49C1782.18 1145.41 1782.16 1145.34 1782.12 1145.27C1782.08 1145.21 1782.02 1145.15 1781.96 1145.12L1778.98 1143.51C1778.9 1143.47 1778.85 1143.41 1778.81 1143.34L1777.18 1140.4C1777.14 1140.33 1777.09 1140.28 1777.02 1140.24C1776.95 1140.2 1776.88 1140.18 1776.8 1140.18C1776.73 1140.18 1776.65 1140.2 1776.58 1140.24C1776.52 1140.28 1776.46 1140.33 1776.43 1140.4L1774.8 1143.34C1774.76 1143.41 1774.7 1143.47 1774.62 1143.51L1771.65 1145.12C1771.58 1145.15 1771.52 1145.21 1771.48 1145.27C1771.44 1145.34 1771.42 1145.41 1771.42 1145.49C1771.42 1145.56 1771.44 1145.64 1771.48 1145.7C1771.52 1145.77 1771.58 1145.82 1771.65 1145.86L1774.63 1147.47C1774.7 1147.5 1774.76 1147.56 1774.8 1147.63L1776.43 1150.57C1776.59 1150.87 1777.02 1150.87 1777.17 1150.57L1778.81 1147.63C1778.85 1147.56 1778.9 1147.5 1778.98 1147.47" fill="#D15D64"/>
</g>
<g style="mix-blend-mode:lighten">
<path fill-rule="evenodd" clip-rule="evenodd" d="M1720.62 1195.61L1722.09 1194.82C1722.16 1194.78 1722.22 1194.73 1722.26 1194.67C1722.29 1194.6 1722.32 1194.53 1722.32 1194.45C1722.32 1194.38 1722.29 1194.3 1722.26 1194.24C1722.22 1194.17 1722.16 1194.12 1722.09 1194.08L1720.62 1193.29C1720.55 1193.25 1720.49 1193.19 1720.45 1193.12L1719.65 1191.67C1719.61 1191.6 1719.56 1191.55 1719.49 1191.51C1719.43 1191.47 1719.35 1191.45 1719.27 1191.45C1719.2 1191.45 1719.12 1191.47 1719.06 1191.51C1718.99 1191.55 1718.94 1191.6 1718.9 1191.67L1718.1 1193.12C1718.06 1193.19 1718 1193.25 1717.93 1193.29L1716.45 1194.08C1716.39 1194.12 1716.33 1194.17 1716.29 1194.24C1716.25 1194.3 1716.23 1194.38 1716.23 1194.45C1716.23 1194.53 1716.25 1194.6 1716.29 1194.67C1716.33 1194.73 1716.39 1194.79 1716.45 1194.82L1717.93 1195.62C1718 1195.65 1718.06 1195.71 1718.1 1195.78L1718.9 1197.24C1719.06 1197.53 1719.49 1197.53 1719.65 1197.24L1720.45 1195.78C1720.49 1195.71 1720.55 1195.66 1720.62 1195.62" fill="#7B63AB"/>
</g>
<g style="mix-blend-mode:lighten">
<path fill-rule="evenodd" clip-rule="evenodd" d="M1748.76 1296.02L1750.23 1295.22C1750.3 1295.19 1750.35 1295.13 1750.39 1295.07C1750.43 1295 1750.45 1294.93 1750.45 1294.85C1750.45 1294.78 1750.43 1294.7 1750.39 1294.64C1750.35 1294.57 1750.3 1294.52 1750.23 1294.48L1748.76 1293.69C1748.69 1293.65 1748.63 1293.59 1748.59 1293.52L1747.79 1292.07C1747.75 1292 1747.7 1291.95 1747.63 1291.91C1747.56 1291.87 1747.49 1291.85 1747.41 1291.85C1747.34 1291.85 1747.26 1291.87 1747.19 1291.91C1747.13 1291.95 1747.07 1292 1747.04 1292.07L1746.23 1293.52C1746.19 1293.59 1746.14 1293.65 1746.06 1293.69L1744.59 1294.48C1744.52 1294.52 1744.47 1294.57 1744.43 1294.64C1744.39 1294.7 1744.37 1294.78 1744.37 1294.85C1744.37 1294.93 1744.39 1295 1744.43 1295.07C1744.47 1295.13 1744.52 1295.19 1744.59 1295.22L1746.06 1296.02C1746.14 1296.06 1746.19 1296.11 1746.23 1296.18L1747.04 1297.64C1747.2 1297.93 1747.62 1297.93 1747.79 1297.64L1748.59 1296.18C1748.63 1296.11 1748.69 1296.06 1748.76 1296.02" fill="#FCD05C"/>
</g>
<mask id="mask2_16_893" style="mask-type:alpha" maskUnits="userSpaceOnUse" x="1667" y="1008" width="7" height="7">
<path d="M1673.19 1014.07V1008.07H1667.11V1014.07H1673.19V1014.07Z" fill="white"/>
</mask>
<g mask="url(#mask2_16_893)">
<path fill-rule="evenodd" clip-rule="evenodd" d="M1671.5 1012.23L1672.97 1011.44C1673.04 1011.4 1673.1 1011.35 1673.14 1011.28C1673.18 1011.22 1673.2 1011.14 1673.2 1011.07C1673.2 1010.99 1673.18 1010.92 1673.14 1010.85C1673.1 1010.79 1673.04 1010.74 1672.97 1010.7L1671.5 1009.91C1671.43 1009.87 1671.37 1009.81 1671.33 1009.74L1670.53 1008.29C1670.49 1008.22 1670.44 1008.16 1670.37 1008.13C1670.31 1008.09 1670.23 1008.07 1670.15 1008.07C1670.08 1008.07 1670 1008.09 1669.94 1008.13C1669.87 1008.16 1669.82 1008.22 1669.78 1008.29L1668.97 1009.74C1668.93 1009.81 1668.88 1009.87 1668.81 1009.91L1667.33 1010.7C1667.27 1010.74 1667.21 1010.79 1667.17 1010.85C1667.13 1010.92 1667.11 1010.99 1667.11 1011.07C1667.11 1011.14 1667.13 1011.22 1667.17 1011.28C1667.21 1011.35 1667.27 1011.4 1667.33 1011.44L1668.81 1012.23C1668.88 1012.27 1668.94 1012.33 1668.97 1012.4L1669.78 1013.85C1669.82 1013.92 1669.87 1013.98 1669.94 1014.01C1670 1014.05 1670.08 1014.07 1670.16 1014.07C1670.23 1014.07 1670.31 1014.05 1670.37 1014.01C1670.44 1013.98 1670.49 1013.92 1670.53 1013.85L1671.33 1012.4C1671.37 1012.33 1671.43 1012.27 1671.5 1012.23" fill="#7B63AB"/>
</g>
<path fill-rule="evenodd" clip-rule="evenodd" d="M1208.68 938.309L1211.69 935.34L1208.68 938.309ZM1200.02 946.854L1203.03 943.885L1200.02 946.854ZM1206.09 936.073C1206.09 935.008 1200.16 940.864 1201.24 940.864C1200.16 940.864 1206.09 946.722 1206.09 945.657C1206.09 946.721 1212.03 940.863 1210.95 940.863C1212.03 940.863 1206.09 935.007 1206.09 936.072L1206.09 936.073Z" stroke="#7B63AB" stroke-width="1.097" stroke-linecap="round" stroke-linejoin="round"/>
<g style="mix-blend-mode:lighten">
<path fill-rule="evenodd" clip-rule="evenodd" d="M1447.82 784.313L1450.8 782.704C1450.87 782.667 1450.93 782.614 1450.97 782.549C1451.01 782.484 1451.03 782.41 1451.03 782.334C1451.03 782.258 1451.01 782.184 1450.97 782.119C1450.93 782.054 1450.87 782.001 1450.8 781.964L1447.82 780.356C1447.75 780.318 1447.69 780.26 1447.65 780.189L1446.02 777.247C1445.99 777.18 1445.93 777.124 1445.87 777.085C1445.8 777.046 1445.73 777.026 1445.65 777.026C1445.57 777.026 1445.5 777.046 1445.43 777.085C1445.37 777.124 1445.31 777.18 1445.27 777.247L1443.65 780.189C1443.61 780.26 1443.55 780.319 1443.47 780.357L1440.49 781.967C1440.43 782.003 1440.37 782.056 1440.33 782.121C1440.29 782.186 1440.27 782.26 1440.27 782.335C1440.27 782.41 1440.29 782.484 1440.33 782.549C1440.37 782.614 1440.43 782.667 1440.49 782.704L1443.47 784.314C1443.55 784.353 1443.6 784.411 1443.64 784.482L1445.27 787.423C1445.44 787.716 1445.86 787.716 1446.02 787.423L1447.65 784.481C1447.69 784.409 1447.75 784.351 1447.83 784.312" fill="#FCD05C"/>
</g>
<g style="mix-blend-mode:lighten">
<path fill-rule="evenodd" clip-rule="evenodd" d="M1327.59 989.286L1329 988.528C1329.06 988.493 1329.11 988.442 1329.15 988.38C1329.19 988.318 1329.21 988.248 1329.21 988.176C1329.21 988.104 1329.19 988.033 1329.15 987.971C1329.11 987.909 1329.06 987.858 1329 987.823L1327.59 987.063C1327.52 987.026 1327.46 986.97 1327.43 986.902L1326.66 985.514C1326.62 985.451 1326.57 985.398 1326.51 985.362C1326.45 985.325 1326.37 985.306 1326.3 985.306C1326.23 985.306 1326.16 985.325 1326.09 985.362C1326.03 985.398 1325.98 985.451 1325.94 985.514L1325.18 986.902C1325.14 986.97 1325.08 987.026 1325.01 987.063L1323.6 987.821C1323.54 987.856 1323.49 987.907 1323.45 987.969C1323.41 988.031 1323.39 988.102 1323.39 988.174C1323.39 988.247 1323.41 988.318 1323.45 988.38C1323.49 988.442 1323.54 988.493 1323.6 988.528L1325.01 989.286C1325.08 989.324 1325.14 989.379 1325.17 989.447L1325.94 990.835C1325.98 990.899 1326.03 990.952 1326.09 990.989C1326.15 991.027 1326.23 991.046 1326.3 991.046C1326.37 991.046 1326.45 991.027 1326.51 990.989C1326.57 990.952 1326.62 990.899 1326.66 990.835L1327.43 989.447C1327.46 989.379 1327.52 989.324 1327.59 989.286Z" fill="#D15D64"/>
</g>
<g style="mix-blend-mode:lighten">
<path fill-rule="evenodd" clip-rule="evenodd" d="M1565.87 894.411L1567.34 893.616C1567.41 893.579 1567.46 893.526 1567.5 893.461C1567.54 893.396 1567.56 893.322 1567.56 893.246C1567.56 893.171 1567.54 893.097 1567.5 893.032C1567.46 892.967 1567.41 892.913 1567.34 892.877L1565.87 892.083C1565.8 892.044 1565.74 891.987 1565.7 891.917L1564.89 890.464C1564.86 890.398 1564.8 890.342 1564.74 890.303C1564.67 890.265 1564.6 890.244 1564.52 890.244C1564.44 890.244 1564.37 890.265 1564.3 890.303C1564.24 890.342 1564.18 890.398 1564.15 890.464L1563.34 891.917C1563.3 891.988 1563.24 892.046 1563.17 892.085L1561.7 892.878C1561.63 892.914 1561.58 892.968 1561.54 893.033C1561.5 893.098 1561.48 893.172 1561.48 893.247C1561.48 893.323 1561.5 893.397 1561.54 893.462C1561.58 893.527 1561.63 893.581 1561.7 893.617L1563.17 894.413C1563.24 894.452 1563.3 894.509 1563.34 894.579L1564.15 896.032C1564.31 896.324 1564.73 896.324 1564.89 896.032L1565.7 894.579C1565.74 894.509 1565.8 894.451 1565.87 894.413" fill="#FCD05C"/>
</g>
<path fill-rule="evenodd" clip-rule="evenodd" d="M1801.73 828.295L1803.63 828.874L1805.54 828.295L1804.95 830.177L1805.54 832.059L1803.63 831.479L1801.73 832.06L1802.31 830.178L1801.73 828.295Z" stroke="#00A959" stroke-width="1.097" stroke-linecap="round" stroke-linejoin="round"/>
<path fill-rule="evenodd" clip-rule="evenodd" d="M25.2647 731.098L23.6717 729.528L25.2647 731.098ZM29.5913 735.371L28.0005 733.801L29.5913 735.371ZM25.3415 730.924C25.7175 730.553 26.2275 730.345 26.7592 730.345C27.2909 730.345 27.8009 730.553 28.1769 730.924C28.5529 731.295 28.7641 731.799 28.7641 732.323C28.7641 732.848 28.5529 733.352 28.1769 733.723C27.8009 734.094 27.2909 734.302 26.7592 734.302C26.2275 734.302 25.7175 734.094 25.3415 733.723C24.9655 733.352 24.7543 732.848 24.7543 732.323C24.7543 731.799 24.9655 731.295 25.3415 730.924Z" stroke="#E98333" stroke-width="1.097" stroke-linecap="round" stroke-linejoin="round"/>
<g opacity="0.5">
<path opacity="0.5" fill-rule="evenodd" clip-rule="evenodd" d="M352.928 433.941C357.577 437.799 358.176 444.646 354.266 449.236C352.962 450.767 351.255 451.912 349.332 452.545C347.41 453.179 345.348 453.275 343.374 452.825C342.125 454.59 341.415 456.416 341.751 458.086C341.922 458.937 341.343 458.855 341.043 458.471C339.542 456.546 337.803 453.523 337.924 449.779C334.061 445.829 333.771 439.557 337.429 435.263C341.339 430.673 348.277 430.083 352.926 433.941" fill="#DBE7F0"/>
<path opacity="0.5" fill-rule="evenodd" clip-rule="evenodd" d="M349.749 440.98H348.434L348.447 440.349C348.447 439.516 347.687 437.129 346.496 437.129C346.117 437.129 345.735 437.321 345.482 437.62C345.37 437.742 345.288 437.886 345.241 438.044C345.193 438.201 345.183 438.366 345.209 438.528C345.372 439.479 345.391 439.992 344.798 440.632C344.149 441.332 343.835 441.626 343.244 441.626H341.942C341.253 441.621 340.644 442.224 340.644 442.905V445.473C340.644 446.154 341.253 446.757 341.942 446.757H343.061L344 447.309C344.102 447.368 344.219 447.399 344.337 447.399H348.453C349.189 447.399 350.3 447.078 350.403 446.192L351.041 442.373C351.054 442.322 351.054 442.284 351.054 442.245C351.033 441.493 350.508 440.981 349.754 440.981H349.747L349.749 440.98ZM349.749 446.115C349.717 446.557 348.921 446.756 348.447 446.756H344.331L343.244 446.115V442.262C344.128 442.262 344.616 441.782 345.279 441.055C346.079 440.183 346.021 439.411 345.852 438.404C345.8 438.084 346.177 437.764 346.502 437.764C347.043 437.764 347.802 439.515 347.802 440.33L347.789 440.992C347.789 441.436 348.006 441.615 348.453 441.615H349.754C350.165 441.615 350.392 441.847 350.403 442.256L349.754 446.109L349.747 446.115H349.749Z" fill="#27363A"/>
<path opacity="0.5" fill-rule="evenodd" clip-rule="evenodd" d="M382.488 477.524C382.488 472.702 380.791 468.274 377.958 464.781C375.667 462.408 373.162 463.889 372.471 474.96C371.642 488.239 364.56 479.371 358.915 485.625C353.285 491.867 340.174 480.517 343.559 487.152C347.044 493.572 353.905 497.94 361.802 497.94C373.225 497.94 382.488 488.799 382.488 477.524Z" fill="#4D595D"/>
<path opacity="0.5" fill-rule="evenodd" clip-rule="evenodd" d="M361.801 457.108C373.225 457.108 382.487 466.249 382.487 477.524C382.487 488.8 373.227 497.94 361.802 497.94C350.377 497.94 341.117 488.8 341.117 477.524C341.117 466.249 350.377 457.108 361.802 457.108H361.801Z" stroke="#DBE7F0" stroke-width="1.097" stroke-linecap="round" stroke-linejoin="round"/>
<path opacity="0.5" fill-rule="evenodd" clip-rule="evenodd" d="M361.801 457.108C373.225 457.108 382.487 466.249 382.487 477.524C382.487 488.8 373.227 497.94 361.802 497.94C350.377 497.94 341.117 488.8 341.117 477.524C341.117 466.249 350.377 457.108 361.802 457.108H361.801Z" stroke="#DBE7F0" stroke-width="1.097" stroke-linecap="round" stroke-linejoin="round"/>
<path opacity="0.5" d="M353.778 496.348C355.267 492.588 358.309 487.304 364.224 484.329C371.29 480.777 376.353 483.721 381.598 483.46M342.747 469.564C346.708 471.278 351.535 472.925 355.465 472.925C363.665 472.925 365.53 467.959 375.219 467.775C376.967 467.743 378.541 467.721 379.944 467.711L342.747 469.564Z" stroke="#DBE7F0" stroke-width="1.097" stroke-linecap="round" stroke-linejoin="round"/>
<path opacity="0.5" d="M356.457 497.252C360.05 493.489 368.848 485.877 379.288 488.434H379.29M344.388 488.55C347.578 488.119 352.823 486.754 357.143 482.49C363.852 475.868 365.714 475.686 369.815 475.686C373.173 475.686 378.159 479.141 382.412 479.278L344.388 488.55ZM353.447 458.84C357.754 459.498 362.955 460.83 366.274 463.544C368.866 465.664 373.339 465.518 377.793 464.573L353.447 458.84ZM349.16 461.363C350.747 461.703 352.209 462.071 353.159 462.375C356.294 463.374 359.061 463.739 358.262 465.935C357.247 468.722 352.554 467.149 349.42 466.148C348.392 465.821 347.107 465.219 345.849 464.527L349.16 461.363ZM341.252 475.177C345.388 475.76 351.148 477.134 351.738 480.282C352.145 482.461 347.572 483.683 342.308 484.371L341.252 475.177Z" stroke="#DBE7F0" stroke-width="1.097" stroke-linecap="round" stroke-linejoin="round"/>
</g>
<g opacity="0.5">
<path opacity="0.5" fill-rule="evenodd" clip-rule="evenodd" d="M1607.05 284.027C1563.18 227.627 1559.44 325.847 1474.46 309.344C1498.27 339.157 1535.19 358.295 1576.64 358.295C1648.47 358.295 1706.7 300.826 1706.7 229.933C1706.7 187.899 1686.23 150.589 1654.6 127.174L1649.14 129.315C1672.99 158.383 1628.15 311.153 1607.05 284.026" fill="#4D595D"/>
<path opacity="0.5" d="M1554.71 103.394C1562.94 102.007 1571.28 101.408 1579.63 101.608M1446.59 227.942C1446.71 219.56 1447.66 211.112 1449.51 202.717L1446.59 227.942ZM1495.35 329.857C1492.14 327.33 1489.06 324.653 1486.12 321.835L1495.35 329.857ZM1619.76 350.539C1609.06 354.284 1597.9 356.629 1586.59 357.517L1619.76 350.539ZM1699.25 188.184C1700.93 192.991 1702.31 197.9 1703.4 202.884L1699.25 188.184ZM1661.97 133.292C1665.86 136.657 1669.55 140.25 1673.01 144.054L1661.97 133.292Z" stroke="#DBE7F0" stroke-width="1.097" stroke-linecap="round" stroke-linejoin="round"/>
<path opacity="0.5" fill-rule="evenodd" clip-rule="evenodd" d="M1495.7 332.065C1500.59 336.324 1506.48 340.302 1513.69 343.643C1513.99 343.782 1514.24 343.995 1514.42 344.27C1515.22 345.47 1518.11 348.537 1519.03 349.5C1519.22 349.701 1519.44 349.845 1519.7 349.938L1529.27 353.375C1529.54 353.477 1529.79 353.642 1529.98 353.86L1536.19 360.755C1536.6 361.208 1537.22 361.417 1537.82 361.313L1544.37 360.176C1544.6 360.134 1544.84 360.14 1545.07 360.194L1549.7 361.239C1549.94 361.292 1550.19 361.297 1550.43 361.251L1555.8 360.247C1556.03 360.205 1556.26 360.207 1556.49 360.253L1566.79 362.373C1567.16 362.45 1567.55 362.405 1567.89 362.245L1573.32 359.767C1573.56 359.662 1573.81 359.604 1574.07 359.604L1582.67 359.613C1583 359.613 1583.32 359.521 1583.61 359.348L1589.02 356.016C1590.17 355.311 1589.63 353.57 1588.28 353.621L1584.09 353.779C1583.8 353.79 1583.52 353.733 1583.26 353.61L1573.02 348.796C1572.65 348.624 1572.23 348.582 1571.84 348.679L1566.03 350.084C1565.63 350.181 1565.2 350.138 1564.82 349.953L1548.25 341.852C1548.08 341.772 1547.91 341.718 1547.73 341.691L1534.45 339.721C1534.16 339.68 1533.88 339.568 1533.65 339.395L1522.88 331.457C1522.56 331.222 1522.18 331.099 1521.78 331.109L1509.15 331.402C1509.01 331.405 1508.88 331.393 1508.75 331.367L1497.23 329.032C1495.45 328.671 1494.33 330.88 1495.7 332.066" fill="#27363A"/>
<path opacity="0.5" fill-rule="evenodd" clip-rule="evenodd" d="M1495.7 332.065C1500.59 336.324 1506.48 340.302 1513.69 343.643C1513.99 343.782 1514.24 343.995 1514.42 344.27C1515.22 345.47 1518.11 348.537 1519.03 349.5C1519.22 349.701 1519.44 349.845 1519.7 349.938L1529.27 353.375C1529.54 353.477 1529.79 353.642 1529.98 353.86L1536.19 360.755C1536.6 361.208 1537.22 361.417 1537.82 361.313L1544.37 360.176C1544.6 360.134 1544.84 360.14 1545.07 360.194L1549.7 361.239C1549.94 361.292 1550.19 361.297 1550.43 361.251L1555.8 360.247C1556.03 360.205 1556.26 360.207 1556.49 360.253L1566.79 362.373C1567.16 362.45 1567.55 362.405 1567.89 362.245L1573.32 359.767C1573.56 359.662 1573.81 359.604 1574.07 359.604L1582.67 359.613C1583 359.613 1583.32 359.521 1583.61 359.348L1589.02 356.016C1590.17 355.311 1589.63 353.57 1588.28 353.621L1584.09 353.779C1583.8 353.79 1583.52 353.733 1583.26 353.61L1573.02 348.796C1572.65 348.624 1572.23 348.582 1571.84 348.679L1566.03 350.084C1565.63 350.181 1565.2 350.138 1564.82 349.953L1548.25 341.852C1548.08 341.772 1547.91 341.718 1547.73 341.691L1534.45 339.721C1534.16 339.68 1533.88 339.568 1533.65 339.395L1522.88 331.457C1522.56 331.222 1522.18 331.099 1521.78 331.109L1509.15 331.402C1509.01 331.405 1508.88 331.393 1508.75 331.367L1497.23 329.032C1495.45 328.671 1494.33 330.88 1495.7 332.066V332.065Z" stroke="#DBE7F0" stroke-width="1.097" stroke-linecap="round" stroke-linejoin="round"/>
<path opacity="0.5" fill-rule="evenodd" clip-rule="evenodd" d="M1675.92 144.35C1685.1 154.603 1697.27 172.304 1700.7 186.219C1700.77 186.504 1700.76 186.801 1700.68 187.084C1700.6 187.367 1700.45 187.625 1700.25 187.835C1696.23 191.999 1677.06 209.478 1675.02 211.333C1674.89 211.451 1674.77 211.531 1674.61 211.605L1663.21 217.1C1663.08 217.166 1662.93 217.217 1662.79 217.243L1656.81 218.423C1656.36 218.512 1655.97 218.768 1655.71 219.139L1648.63 229.104C1648.11 229.839 1647.11 230.068 1646.32 229.632L1619.87 215.127C1619.63 214.997 1619.43 214.816 1619.28 214.598C1619.12 214.379 1619.02 214.128 1618.98 213.865L1615.63 192.462C1615.57 192.109 1615.63 191.748 1615.79 191.427C1615.95 191.106 1616.2 190.84 1616.51 190.666L1633.7 181.202C1634.12 180.965 1634.43 180.567 1634.55 180.098L1641.84 151.222C1641.92 150.9 1642.09 150.607 1642.34 150.378C1642.58 150.149 1642.89 149.993 1643.22 149.929L1674.25 143.809C1674.55 143.746 1674.86 143.763 1675.16 143.859C1675.45 143.954 1675.71 144.124 1675.92 144.352" fill="#27363A"/>
<path opacity="0.5" fill-rule="evenodd" clip-rule="evenodd" d="M1675.92 144.35C1685.1 154.603 1697.27 172.304 1700.7 186.219C1700.77 186.504 1700.76 186.801 1700.68 187.084C1700.6 187.367 1700.45 187.625 1700.25 187.835C1696.23 191.999 1677.06 209.478 1675.02 211.333C1674.89 211.451 1674.77 211.531 1674.61 211.605L1663.21 217.1C1663.08 217.166 1662.93 217.217 1662.79 217.243L1656.81 218.423C1656.36 218.512 1655.97 218.768 1655.71 219.139L1648.63 229.104C1648.11 229.839 1647.11 230.068 1646.32 229.632L1619.87 215.127C1619.63 214.997 1619.43 214.816 1619.28 214.598C1619.12 214.379 1619.02 214.128 1618.98 213.865L1615.63 192.462C1615.57 192.109 1615.63 191.748 1615.79 191.427C1615.95 191.106 1616.2 190.84 1616.51 190.666L1633.7 181.202C1634.12 180.965 1634.43 180.567 1634.55 180.098L1641.84 151.222C1641.92 150.9 1642.09 150.607 1642.34 150.378C1642.58 150.149 1642.89 149.993 1643.22 149.929L1674.25 143.809C1674.55 143.746 1674.86 143.763 1675.16 143.859C1675.45 143.954 1675.71 144.124 1675.92 144.352V144.35Z" stroke="#DBE7F0" stroke-width="1.097" stroke-linecap="round" stroke-linejoin="round"/>
<path opacity="0.5" fill-rule="evenodd" clip-rule="evenodd" d="M1446.58 257.331C1444.57 248.133 1443.64 238.739 1443.8 229.332C1443.82 227.868 1445.58 227.099 1446.72 228.039L1455.28 235.127C1455.65 235.437 1456.13 235.579 1456.62 235.526L1470.57 233.966C1470.97 233.924 1471.37 234.014 1471.71 234.223L1488.89 244.832C1489.07 244.944 1489.28 245.024 1489.48 245.067L1506.99 248.522C1507.4 248.605 1507.82 248.542 1508.18 248.348L1523.3 240.299C1523.65 240.112 1524.05 240.047 1524.44 240.115C1524.84 240.184 1525.2 240.381 1525.46 240.675L1536.46 252.857C1536.72 253.145 1536.88 253.515 1536.9 253.903L1538.93 283.611C1538.96 284.148 1538.75 284.669 1538.35 285.028L1523.83 298.009C1523.58 298.231 1523.4 298.518 1523.31 298.835L1519.12 313.643C1519.03 313.969 1518.85 314.262 1518.59 314.485C1518.33 314.709 1518.01 314.854 1517.67 314.903L1499.38 317.528C1499.21 317.552 1499.04 317.552 1498.87 317.528L1491.11 316.408C1490.76 316.357 1490.41 316.408 1490.09 316.556C1489.77 316.704 1489.51 316.942 1489.33 317.239C1488.74 318.214 1487.83 319.728 1487.08 320.978C1486.94 321.201 1486.76 321.391 1486.54 321.536C1486.32 321.68 1486.07 321.775 1485.81 321.814C1485.55 321.853 1485.29 321.835 1485.03 321.76C1484.78 321.686 1484.55 321.557 1484.35 321.384C1476.28 314.197 1469.44 306.288 1463.82 297.864H1487.23C1494.82 297.864 1483.44 293.95 1475.33 294.46C1474.26 294.527 1473.16 294.596 1472.04 294.661C1471.77 292.05 1468.96 287.668 1462.72 287.598C1463.17 286.961 1463.58 286.296 1463.95 285.609C1476.19 265.516 1460.14 255.076 1446.58 257.334V257.331Z" fill="#27363A"/>
<path opacity="0.5" fill-rule="evenodd" clip-rule="evenodd" d="M1463.82 297.861C1469.44 306.285 1476.28 314.192 1484.35 321.38C1484.55 321.554 1484.78 321.682 1485.03 321.756C1485.29 321.831 1485.55 321.849 1485.81 321.81C1486.07 321.772 1486.32 321.677 1486.54 321.532C1486.76 321.388 1486.94 321.197 1487.08 320.975C1487.83 319.725 1488.74 318.21 1489.33 317.236C1489.51 316.939 1489.77 316.701 1490.09 316.553C1490.4 316.405 1490.76 316.354 1491.1 316.405L1498.87 317.525C1499.03 317.549 1499.21 317.549 1499.38 317.525L1517.67 314.899C1518.01 314.85 1518.33 314.705 1518.59 314.481C1518.84 314.258 1519.03 313.965 1519.12 313.639L1523.31 298.832C1523.4 298.514 1523.58 298.228 1523.83 298.006L1538.34 285.025C1538.75 284.666 1538.96 284.144 1538.92 283.609L1536.9 253.903C1536.87 253.515 1536.72 253.147 1536.45 252.857L1525.46 240.674C1525.19 240.38 1524.83 240.183 1524.44 240.115C1524.05 240.048 1523.64 240.113 1523.29 240.3L1508.18 248.348C1507.82 248.54 1507.4 248.605 1506.99 248.523L1489.48 245.069C1489.27 245.026 1489.07 244.946 1488.89 244.834L1471.71 234.225C1471.37 234.017 1470.97 233.927 1470.57 233.968L1456.62 235.528C1456.38 235.554 1456.13 235.533 1455.9 235.464C1455.67 235.396 1455.46 235.282 1455.28 235.129L1446.72 228.042C1445.58 227.102 1443.82 227.871 1443.8 229.334C1443.64 238.748 1444.57 248.149 1446.58 257.353L1463.82 297.861ZM1552.65 101.843C1509.05 109.266 1461.21 142.249 1448.11 200.834C1447.83 202.079 1448.97 203.196 1450.24 202.927C1451.55 202.646 1453.04 202.297 1454.01 202.064C1454.32 201.989 1454.65 201.999 1454.95 202.092C1455.26 202.186 1455.53 202.359 1455.74 202.594L1465.5 213.286C1465.92 213.75 1466.56 213.955 1467.18 213.826L1492.56 208.489C1492.99 208.396 1493.37 208.15 1493.63 207.798L1509.51 185.979C1509.74 185.655 1509.86 185.262 1509.84 184.864C1509.82 184.467 1509.66 184.088 1509.39 183.791L1501.23 174.814C1501.05 174.615 1500.92 174.378 1500.85 174.12C1500.77 173.863 1500.76 173.592 1500.81 173.329L1503.44 159.204C1503.55 158.641 1503.92 158.163 1504.45 157.927L1519.85 151.021C1520.11 150.904 1520.4 150.851 1520.68 150.867C1520.97 150.883 1521.25 150.967 1521.49 151.111C1521.74 151.256 1521.95 151.458 1522.1 151.699C1522.25 151.94 1522.34 152.213 1522.35 152.495L1523.16 164.375C1523.19 164.813 1523.39 165.223 1523.71 165.529L1544.75 185.205C1545.2 185.619 1545.83 185.779 1546.42 185.625L1564.33 180.963C1564.51 180.917 1564.68 180.899 1564.86 180.907C1567.19 181.014 1583.72 181.755 1583.96 181.182C1584.2 180.621 1585.8 164.144 1586.08 161.225C1586.11 160.931 1586.22 160.65 1586.39 160.41L1596.68 145.803C1596.9 145.488 1597.01 145.111 1597 144.728C1596.98 144.345 1596.84 143.978 1596.59 143.683L1579.14 123.073C1578.94 122.847 1578.7 122.673 1578.42 122.567L1556.93 114.3C1556.64 114.188 1556.38 113.999 1556.19 113.754C1555.99 113.509 1555.86 113.217 1555.82 112.908C1555.55 110.862 1554.94 106.204 1554.71 103.434C1554.69 103.192 1554.62 102.956 1554.51 102.742C1554.39 102.527 1554.23 102.339 1554.04 102.19C1553.84 102.04 1553.62 101.932 1553.38 101.872C1553.14 101.812 1552.89 101.802 1552.65 101.843H1552.65Z" stroke="#DBE7F0" stroke-width="1.097" stroke-linecap="round" stroke-linejoin="round"/>
<path opacity="0.5" fill-rule="evenodd" clip-rule="evenodd" d="M1702.54 203.761L1697.28 215.602C1697.07 216.076 1696.66 216.43 1696.16 216.579L1682.98 220.449C1682.68 220.539 1682.4 220.708 1682.19 220.938L1670.35 233.575C1670 233.953 1669.83 234.468 1669.9 234.979L1672.14 252.661C1672.2 253.157 1672.05 253.654 1671.72 254.028L1661.73 265.321C1661.56 265.516 1661.35 265.67 1661.11 265.774C1660.87 265.877 1660.61 265.927 1660.35 265.919L1642.66 265.46C1642.2 265.448 1641.75 265.614 1641.41 265.923C1641.07 266.231 1640.87 266.658 1640.84 267.113L1639.68 287.658C1639.67 287.87 1639.61 288.078 1639.52 288.27L1631.29 306.541C1631.2 306.756 1631.15 306.988 1631.14 307.223C1631.14 307.458 1631.18 307.691 1631.27 307.908L1637.76 323.736C1637.95 324.23 1637.92 324.789 1637.65 325.252L1628.67 340.935C1628.58 341.088 1628.49 341.217 1628.36 341.335C1627.44 342.195 1623.24 346.156 1620.25 349.209C1619.02 350.472 1620.23 352.53 1621.96 352.117C1650.26 345.423 1720.65 297.363 1705.92 204.218C1705.65 202.482 1703.25 202.156 1702.53 203.763" fill="#27363A"/>
<path opacity="0.5" fill-rule="evenodd" clip-rule="evenodd" d="M1702.54 203.761L1697.28 215.602C1697.07 216.076 1696.66 216.43 1696.16 216.579L1682.98 220.449C1682.68 220.539 1682.4 220.708 1682.19 220.938L1670.35 233.575C1670 233.953 1669.83 234.468 1669.9 234.979L1672.14 252.661C1672.2 253.157 1672.05 253.654 1671.72 254.028L1661.73 265.321C1661.56 265.516 1661.35 265.67 1661.11 265.774C1660.87 265.877 1660.61 265.927 1660.35 265.919L1642.66 265.46C1642.2 265.448 1641.75 265.614 1641.41 265.923C1641.07 266.231 1640.87 266.658 1640.84 267.112L1639.68 287.658C1639.67 287.87 1639.61 288.078 1639.52 288.27L1631.29 306.541C1631.2 306.756 1631.15 306.988 1631.14 307.223C1631.14 307.458 1631.18 307.691 1631.27 307.908L1637.76 323.736C1637.95 324.23 1637.92 324.789 1637.65 325.252L1628.67 340.935C1628.58 341.088 1628.49 341.217 1628.36 341.335C1627.44 342.195 1623.24 346.156 1620.25 349.209C1619.02 350.472 1620.23 352.53 1621.96 352.117C1650.26 345.423 1720.65 297.363 1705.92 204.218C1705.65 202.482 1703.25 202.156 1702.53 203.763L1702.54 203.761ZM1581.26 99.7138L1596.67 98.8561C1597.1 98.8316 1597.52 98.9608 1597.86 99.2193L1600.23 101.037C1600.66 101.361 1601.21 101.478 1601.73 101.353L1611.17 99.1285C1611.63 99.0196 1612.12 99.0997 1612.52 99.3496L1616.47 101.809C1616.84 102.044 1617.29 102.13 1617.72 102.055L1623.72 101.01C1624.05 100.951 1624.39 100.989 1624.7 101.113L1626.81 101.971C1627.2 102.131 1627.53 102.426 1627.72 102.801L1629.7 106.695C1629.95 107.186 1630.42 107.531 1630.97 107.627L1635.04 108.345C1635.46 108.42 1635.84 108.644 1636.11 108.979L1639.16 112.77C1639.28 112.911 1639.41 113.034 1639.56 113.133L1646.5 117.723C1646.72 117.875 1646.91 118.065 1647.04 118.3C1647.52 119.122 1648.7 121.144 1648.99 121.387C1649.3 121.654 1659.7 130.049 1662.58 132.381C1662.89 132.626 1662.77 133.11 1662.39 133.198C1661.44 133.422 1659.99 133.747 1659.27 133.846C1659.01 133.881 1658.76 133.841 1658.52 133.732L1649.14 129.316C1649.03 129.263 1648.9 129.218 1648.78 129.188L1638.46 126.835C1638.25 126.786 1638.03 126.775 1637.82 126.803L1627.48 128.162C1627.04 128.218 1626.6 128.115 1626.24 127.871L1610.47 117.201C1610.3 117.086 1610.11 117.001 1609.91 116.951L1591.57 112.255C1591.19 112.159 1590.85 111.943 1590.61 111.64L1585.83 105.595C1585.65 105.372 1585.42 105.196 1585.16 105.079L1580.62 103.049C1578.94 102.291 1579.41 99.8132 1581.26 99.7106V99.7138Z" stroke="#DBE7F0" stroke-width="1.097" stroke-linecap="round" stroke-linejoin="round"/>
<path opacity="0.5" fill-rule="evenodd" clip-rule="evenodd" d="M1410.27 124.209C1422.08 120.312 1434.86 126.607 1438.81 138.268C1441.58 146.468 1439.25 155.133 1433.51 160.915C1435.3 164.956 1437.78 168.132 1441.1 169.342C1442.79 169.958 1442.02 170.869 1441.02 170.976C1436 171.51 1428.79 171.275 1422.28 167.056C1411.15 169.499 1399.72 163.286 1396.02 152.376C1392.08 140.715 1398.45 128.104 1410.27 124.207" fill="#DBE7F0"/>
<path opacity="0.5" fill-rule="evenodd" clip-rule="evenodd" d="M1424.94 139.655C1424.2 138.771 1423.16 138.32 1421.81 138.252C1420.43 138.252 1419.4 138.841 1418.68 139.656C1418.44 139.919 1418.24 140.146 1418.08 140.338C1418.02 140.416 1417.93 140.479 1417.84 140.522C1417.75 140.565 1417.64 140.587 1417.54 140.587C1417.44 140.587 1417.34 140.565 1417.24 140.522C1417.15 140.479 1417.07 140.416 1417 140.338C1416.84 140.146 1416.64 139.919 1416.4 139.656C1415.66 138.841 1414.74 138.253 1413.27 138.253C1411.92 138.323 1410.87 138.787 1410.14 139.657C1409.4 140.514 1409.03 141.456 1409 142.467C1409 143.195 1409.13 144.598 1409.96 146.216C1410.75 147.771 1413.11 150.162 1417.09 153.338C1417.35 153.546 1417.73 153.546 1417.99 153.338C1421.96 150.162 1424.35 147.784 1425.13 146.216C1425.95 144.586 1426.07 143.168 1426.07 142.467C1426.04 141.456 1425.67 140.514 1424.94 139.63V139.656L1424.94 139.655Z" fill="#27363A"/>
<path opacity="0.5" fill-rule="evenodd" clip-rule="evenodd" d="M1698.65 179.861H1773.92C1785.99 179.861 1780.82 175.437 1765.64 176.799C1764.88 176.866 1764.14 176.917 1763.39 176.963C1761.69 175.145 1757.48 172.923 1753.36 174.172C1752.67 169.294 1744.47 163.429 1736.74 168.524C1736.18 160.944 1728.45 153.672 1720.3 160.141C1722.73 147.862 1719.45 134.339 1700.46 135.951C1688.76 136.944 1683.49 142.915 1681.84 150.103L1698.65 179.861ZM1475.33 294.457C1474.26 294.524 1473.16 294.592 1472.04 294.658C1471.77 292.047 1468.96 287.665 1462.72 287.594C1463.17 286.957 1463.58 286.293 1463.95 285.606C1481.89 256.163 1439.07 247.446 1432.37 269.041C1430.95 273.613 1430.37 278.083 1430.38 282.032C1428.25 280.686 1425.33 279.821 1421.36 279.821C1410.54 279.821 1406.99 289.18 1408.09 293.657C1406.14 292.456 1403.95 291.291 1399.11 291.734C1389.8 292.586 1380.49 297.862 1394.63 297.862H1487.23C1494.82 297.862 1483.44 293.946 1475.34 294.457H1475.33Z" stroke="#DBE7F0" stroke-width="1.097" stroke-linecap="round" stroke-linejoin="round"/>
</g>
</svg>
